<?xml version="1.0" encoding="utf-8"?>
<!-- Designed by Vexels.com - 2019 All Rights Reserved - https://vexels.com/terms-and-conditions/  -->
<svg version="1.1" id="Layer_1" xmlns="http://www.w3.org/2000/svg" xmlns:xlink="http://www.w3.org/1999/xlink" x="0px" y="0px"
	 viewBox="0 0 1200 1200" enable-background="new 0 0 1200 1200" xml:space="preserve">
<g>
	<path fill="#B8453D" d="M666.985,991.393c-2.131,3.972-7.961,7.565-10.612,10.08l-4.562,4.329l-2.073,1.967l1.241,7.414
		c0.392,2.342,0.784,4.683,1.176,7.025c0.518,3.094,2,7.44,1.54,10.518c-0.27,1.808-1.73,3.118-3.564,2.68
		c-0.286-0.068-0.568-0.178-0.834-0.329l-11.587-6.603l-9.71-5.532c0,0-0.421,0.206-1.143,0.558
		c-1.215,0.593-3.284,1.606-5.651,2.767c-3.137,1.539-6.315,2.991-9.442,4.55c-2.462,1.228-8.7,5.852-9.569,0.224
		c-0.051-0.334-0.052-0.677,0.006-1.016c0.972-7.779,4.091-16.042,4.091-23.872c0,0-14.753-14.855-16.833-17.256
		c-0.767-0.885-1.125-1.611-1.274-2.176c-0.255-0.965,0.105-1.459,0.105-1.459c2.358-3.221,7.601-3.019,11.133-3.074
		c2.055-0.032,4.026-0.077,6.07-0.336c1.08-0.137,8.774-0.517,9.12-1.247c0,0,0.77-1.622,1.883-3.961
		c0.88-1.851,1.976-4.15,3.077-6.456c1.487-3.113,2.912-6.254,4.439-9.343c1.257-2.541,4.983-5.337,6.818-1.495l8.377,17.53
		l2.257,4.724c0,0,0.438,0.081,1.194,0.221c4.769,0.883,9.538,1.766,14.307,2.653c2.284,0.425,10.599,0.484,10.811,3.741
		C667.845,989.294,667.541,990.357,666.985,991.393z"/>
	<path fill="#B8453D" d="M551.331,951.469c-1.357,2.528-5.067,4.815-6.754,6.416l-2.903,2.755l-1.32,1.252l0.79,4.719
		c0.25,1.49,0.499,2.981,0.749,4.471c0.33,1.969,1.273,4.735,0.98,6.694c-0.172,1.151-1.101,1.985-2.268,1.706
		c-0.182-0.044-0.361-0.113-0.531-0.21l-7.375-4.202l-6.18-3.521c0,0-0.268,0.131-0.727,0.355c-0.773,0.378-2.09,1.022-3.597,1.761
		c-1.996,0.979-4.02,1.904-6.01,2.896c-1.567,0.782-5.537,3.724-6.09,0.143c-0.033-0.212-0.033-0.431,0.004-0.647
		c0.619-4.951,2.604-10.21,2.604-15.194c0,0-9.39-9.455-10.714-10.983c-0.488-0.563-0.716-1.025-0.811-1.385
		c-0.162-0.615,0.067-0.928,0.067-0.928c1.501-2.05,4.838-1.921,7.086-1.956c1.308-0.02,2.563-0.049,3.863-0.214
		c0.687-0.087,5.584-0.329,5.805-0.794c0,0,0.49-1.032,1.199-2.521c0.56-1.178,1.257-2.642,1.958-4.109
		c0.946-1.981,1.853-3.98,2.825-5.946c0.8-1.617,3.172-3.397,4.339-0.952l5.332,11.157l1.437,3.006c0,0,0.279,0.052,0.76,0.141
		c3.036,0.562,6.071,1.124,9.106,1.688c1.454,0.27,6.746,0.308,6.881,2.381C551.878,950.134,551.685,950.81,551.331,951.469z"/>
	<path fill="#B8453D" d="M754.251,951.469c-1.357,2.528-5.067,4.815-6.754,6.416l-2.903,2.755l-1.32,1.252l0.79,4.719
		c0.25,1.49,0.499,2.981,0.748,4.471c0.33,1.969,1.273,4.735,0.98,6.694c-0.172,1.151-1.101,1.985-2.268,1.706
		c-0.182-0.044-0.361-0.113-0.531-0.21l-7.375-4.202l-6.18-3.521c0,0-0.268,0.131-0.727,0.355c-0.773,0.378-2.09,1.022-3.597,1.761
		c-1.996,0.979-4.02,1.904-6.01,2.896c-1.567,0.782-5.537,3.724-6.09,0.143c-0.033-0.212-0.033-0.431,0.004-0.647
		c0.619-4.951,2.604-10.21,2.604-15.194c0,0-9.39-9.455-10.714-10.983c-0.488-0.563-0.716-1.025-0.811-1.385
		c-0.162-0.615,0.067-0.928,0.067-0.928c1.501-2.05,4.838-1.921,7.086-1.956c1.308-0.02,2.563-0.049,3.863-0.214
		c0.687-0.087,5.584-0.329,5.805-0.794c0,0,0.49-1.032,1.199-2.521c0.56-1.178,1.257-2.642,1.958-4.109
		c0.946-1.981,1.853-3.98,2.825-5.946c0.8-1.617,3.172-3.397,4.339-0.952l5.332,11.157l1.437,3.006c0,0,0.279,0.052,0.76,0.141
		c3.036,0.562,6.071,1.124,9.106,1.688c1.454,0.27,6.746,0.308,6.881,2.381C754.798,950.134,754.605,950.81,754.251,951.469z"/>
	<g>
		<path fill="#B8453D" d="M359.437,724.979c-2.024,0-4.627,0.579-7.517,2.603c-4.339,2.891-10.408,5.202-16.191,5.202
			c-21.685,0-63.315-32.38-95.407-71.99c4.336,1.157,7.805,2.024,10.698,2.024c55.798,0,111.02-50.596,111.02-106.106
			c0-23.997-41.924-54.353-74.883-54.353c-78.061,0-189.37,51.174-189.37,87.312c0,8.962,40.764,33.25,51.462,33.25
			c8.096,0,21.394-13.01,31.226-30.356c0.288-0.579,0.576-1.157,0.576-1.445c0-1.448-1.155-2.603-3.179-2.603
			c-2.315,0-4.914,1.445-7.517,4.048c-4.627,4.624-11.277,7.805-14.456,7.805c-5.784,0-14.168-11.274-14.168-19.37
			c0-25.442,89.336-65.918,145.424-65.918c22.842,0,33.828,12.141,33.828,37.873c0,46.836-36.431,96.565-73.147,96.565
			c-4.914,0-14.456-4.627-25.442-12.144c13.589-28.332,32.668-62.739,57.822-102.346c1.445-2.603,2.603-4.627,2.603-6.362
			c0-2.891-2.312-4.624-7.229-4.624c-5.493,0-11.274,2.312-15.034,6.072c-50.593,50.593-101.189,137.907-101.189,170
			c0,10.986,20.527,33.247,30.356,33.247c6.072,0,8.962-9.25,8.962-19.661c0-14.743,5.493-34.983,16.77-61.003
			c53.196,83.267,75.168,107.551,95.986,107.551c18.213,0,44.233-18.503,52.617-27.466c0.869-0.867,1.157-1.733,1.157-2.891
			C365.218,727.291,362.906,724.979,359.437,724.979z"/>
		<path fill="#B8453D" d="M495.915,571.747c8.384,0,16.479-15.901,25.154-22.551c0.576-0.288,0.867-0.867,0.867-1.445
			c0-4.048-13.01-12.141-17.346-12.141c-6.072,0-15.904,16.189-15.904,26.308C488.686,567.699,491.58,571.747,495.915,571.747z"/>
		<path fill="#B8453D" d="M1097.586,650.966c-4.336,0-8.096,1.733-9.541,4.048c-14.455,24.863-27.466,41.343-34.404,41.343
			c-2.891,0-4.336-2.891-4.336-7.805c0-14.456,10.986-47.705,32.092-91.65c0.288-0.867,0.576-1.445,0.576-2.312
			c0-6.072-8.962-13.301-15.322-13.301c-1.445,0-2.312,0-3.469,0.579c-11.853,1.736-23.708,5.493-31.514,8.962
			c2.024-7.517,7.229-15.613,12.432-22.261c0.291-0.291,0.579-0.869,0.579-1.157c0-3.181-7.229-7.517-13.877-7.517
			c-12.722,0-25.154,22.839-25.154,33.247c0,4.339,2.891,10.12,6.65,13.589c-8.143,18.381-18.917,38.971-30.192,57.626
			c-12.143,19.558-22.652,32-27.926,32c-14.746,0-25.732-11.565-26.021-27.754c27.466-8.962,55.798-43.948,55.798-61.873
			c0-13.298-15.901-23.127-30.066-23.127c-4.627,0-8.965,1.155-12.434,3.179c-18.258,11.125-37.573,41.136-46.795,69.139
			c-14.24,24.347-27.006,40.436-33.002,40.436c-14.746,0-25.732-11.565-26.02-27.754c27.466-8.962,55.798-43.948,55.798-61.873
			c0-13.298-15.901-23.127-30.066-23.127c-4.627,0-8.965,1.155-12.434,3.179c-18.033,10.988-37.106,40.404-46.458,68.109
			c-0.028,0.042-0.069,0.081-0.095,0.123c-17.346,29.49-28.911,41.343-39.607,41.343c-7.517,0-10.986-5.202-10.986-14.168
			c0-8.962,3.179-21.682,8.962-37.007c20.237,0,74.88-73.435,74.88-100.034c0-13.586-15.322-27.466-28.911-27.466
			c-5.493,0-10.698,2.315-14.456,7.808c-17.058,25.151-30.938,48.281-42.212,68.52c-9.829-6.362-24.575-12.722-32.959-12.722
			c-22.524,0-63.13,44.17-77.64,80.752c-12.745,20.879-23.951,34.316-30.21,34.316c-2.891,0-4.336-2.891-4.336-8.096
			c0-14.456,10.698-47.702,31.802-91.36c0.579-0.867,0.579-1.445,0.579-2.312c0-6.072-9.25-13.301-15.322-13.301
			c-1.445,0-2.315,0-3.181,0.579c-26.887,1.157-75.459,60.715-95.407,97.431c3.469-17.637,13.877-44.233,31.802-82.397
			c0.291-0.867,0.579-1.736,0.579-2.603c0-6.36-9.25-13.01-15.613-13.01c-1.733,0-3.179,0.579-4.336,1.736
			c-10.351,11.913-29.795,48.09-41.331,74.421c-13.858,23.486-25.956,38.911-32.104,38.911c-2.312,0-3.469-2.312-3.469-6.65
			c0-13.586,11.565-47.414,33.538-92.805c0.288-0.867,0.579-1.445,0.579-2.312c0-6.072-9.253-13.301-15.613-13.301
			c-1.736,0-3.181,0.579-4.336,1.736c-10.944,12.532-30.782,49.158-42.093,75.213c-13.685,23.042-25.832,38.119-31.635,38.119
			c-14.746,0-25.733-11.565-26.02-27.754c27.466-8.962,55.798-43.948,55.798-61.873c0-13.298-15.901-23.127-30.066-23.127
			c-4.627,0-8.965,1.155-12.434,3.179c-25.151,15.325-52.329,66.496-52.329,98.877c0,15.034,33.538,33.25,64.763,33.25
			c5.63,0,15.254-9.935,26.433-26.919c8.027,12.312,29.803,26.919,36.597,26.919c5.55,0,14.983-9.663,25.959-26.207
			c7.281,11.806,26.726,26.207,35.332,26.207c10.408,0,41.921-89.336,82.976-121.428c-22.261,30.935-36.428,64.76-36.428,88.178
			c0,10.989,30.356,33.25,39.319,33.25c5.996,0,15.761-9.944,26.996-26.94c6.628,11.509,26.986,26.94,33.727,26.94
			c7.808,0,26.021-20.527,46.836-50.017c-2.891,8.962-4.045,15.901-4.045,19.949c0,7.517,40.476,30.068,55.798,30.068
			c5.975,0,16.456-11.225,28.513-30.155c4.084,14.326,35.19,30.155,64.3,30.155c5.943,0,16.344-11.108,28.318-29.854
			c4.43,14.245,35.296,29.854,64.202,29.854c8.044,0,24.241-20.302,41.482-52.464c9.947-17.437,21.022-39.441,29.356-60.868
			c5.781-3.469,16.767-8.674,30.356-13.301c-17.058,25.732-43.367,80.664-43.367,91.072c0,11.565,30.647,35.561,40.764,35.561
			c10.698,0,29.49-24.863,49.15-63.894c0.291-0.579,0.579-1.157,0.579-1.445C1102.213,651.832,1100.768,650.966,1097.586,650.966z
			 M964.3,596.322c0.579,2.312,1.155,5.205,1.155,8.096c0,17.925-16.767,40.476-35.849,52.041
			C933.941,634.774,949.845,607.308,964.3,596.322z M871.781,596.322c0.579,2.312,1.155,5.205,1.155,8.096
			c0,17.925-16.767,40.476-35.849,52.041C841.422,634.774,857.325,607.308,871.781,596.322z M812.796,535.319
			c0.576,2.024,0.576,4.336,0.576,6.65c0,28.911-28.332,78.64-48.86,93.096C775.789,607.308,793.423,572.038,812.796,535.319z
			 M409.468,596.322c0.579,2.312,1.155,5.205,1.155,8.096c0,17.925-16.767,40.476-35.849,52.041
			C379.109,634.774,395.012,607.308,409.468,596.322z M732.132,629.281c-24.287,36.428-50.017,67.075-58.113,67.075
			c-2.024,0-3.181-2.024-3.181-5.493c0-21.106,34.407-93.962,57.246-93.962c4.627,0,12.144,2.891,17.346,6.072
			C740.227,612.223,735.889,621.185,732.132,629.281z"/>
	</g>
	<g>
		<path fill="#B8453D" d="M552.197,799.381l-0.356-0.071l-33.513,83.038h-9.321l-33.516-82.968l-0.356,0.071l1.424,41.91v30.028
			l11.598,1.994v8.965h-37.213v-8.965l11.598-1.994v-81.615l-11.598-1.994v-9.036h11.598h17.93l33.019,84.179h0.427l32.945-84.179
			h29.601v9.036l-11.598,1.994v81.615l11.598,1.994v8.965h-37.216v-8.965l11.6-1.994v-30.028L552.197,799.381z"/>
		<path fill="#B8453D" d="M589.731,873.384l7.683-1.068l36.219-93.571h12.027l35.578,93.571l7.612,1.068v8.965h-29.742v-8.965
			l7.827-1.353l-6.83-19.068H618.62l-7.044,19.068l7.827,1.353v8.965h-29.672V873.384z M622.959,841.221h32.875l-16.08-44.472
			h-0.427L622.959,841.221z"/>
		<path fill="#B8453D" d="M701.9,787.781v-9.036h37.216v9.036l-11.598,1.994v81.615l11.598,1.994v8.965H701.9v-8.965l11.6-1.994
			v-81.615L701.9,787.781z"/>
		<path fill="#B8453D" d="M753.452,882.349v-8.965l11.598-1.994v-81.615l-11.598-1.994v-9.036h11.598h14.018h11.598v9.036
			l-11.598,1.994v81.615h36.004l1.068-11.883h11.953v22.842H753.452z"/>
	</g>
	<path fill="#B8453D" d="M479.688,479.091c7.364,7.029,10.556,16.477,12.015,26.299c0.406,2.76,1.925,3.929,4.474,4.864
		c4.237,1.553,8.747,1.604,13.212,1.658c0.644,0.01,1.047-0.512,1.105-1.103c0.343-3.69-1.444-7.025-3.227-10.124
		c-2.109-3.672-3.795-7.285-4.443-11.508c-1.404-9.138-1.033-18.565-0.309-27.744c0.48-6.032,0.785-12.087,1.324-18.115
		c0.494-5.494,1.041-11.257,2.974-16.469c1.968-5.305,5.657-9.899,9.465-14.003c3.915-4.219,8.151-8.111,12.471-11.906
		c8.953-7.872,17.754-16.248,24.713-25.987c2.899-4.055,4.528-8.852,6.425-13.414c0.008-0.027,0.021-0.053,0.035-0.079
		c-0.089,0.626-0.168,1.226-0.264,1.783c-1.025,6.005-4.056,11.077-6.456,16.588c-1.969,4.523-4.361,8.476-7.008,12.634
		c-1.319,2.078-2.679,4.184-3.654,6.447c-0.601,1.399-1.464,3.217-1.271,4.789c0.637,5.158,5.009,8.958,7.89,12.987
		c15.366,21.45,21.147,48.907,23.729,74.731c0.056,0.591,0.454,1.117,1.103,1.103c1.654-0.025,3.295-0.184,4.941-0.082
		c0.716,4.633,1.263,12.734,6.734,13.59c2.952,0.46,5.997,0.379,8.959,0.058c2.218-0.243,4.945-0.389,6.888-1.628
		c0.464-0.295,0.762-1.011,0.392-1.509c-4.932-6.629-9.17-13.785-12.595-21.315c-3.512-7.705-5.93-15.714-8.406-23.793
		c-2.039-6.672-4.096-13.344-5.8-20.109c-1.367-5.432-2.298-10.93-4.082-16.248c-1.61-4.81-3.569-9.761-4.095-14.845
		c-0.23-2.241-0.375-4.85,0.674-6.928c1.162-2.295,2.719-4.404,4.431-6.315c7.186-8.031,16.738-13.636,23.482-22.082
		c3.079-3.861,6.023-7.903,8.335-12.276c0.795-1.51,1.566-3.08,2.208-4.705c5.952,0.164,11.733,1.628,17.553,2.776
		c2.749,0.542,5.511,1.054,8.301,1.336c2.789,0.283,5.592,0.239,8.381,0.512c5.267,0.517,10.864,1.757,16.142,0.751
		c3.053-0.587,6.941-0.685,9.563-2.595c0.851,2.732,1.614,5.498,2.378,8.256c1.505,5.442,3.429,10.85,4.404,16.42
		c2.017,11.526,1.117,23.278,0.923,34.907c-0.213,12.466,1.036,24.928,1.637,37.377c0.613,12.765,1.183,25.541,2.312,38.277
		c0.049,0.547,0.468,1.169,1.103,1.103c1.034-0.11,4.096-0.706,4.803,0.49c0.537,0.904,0.344,2.119,0.295,3.125
		c-0.127,2.635-0.12,5.829,1.735,7.934c4.276,4.859,12.907,3.367,18.582,3.018c0.79-0.048,1.439-0.914,0.953-1.658
		c-1.35-2.08-2.582-4.237-3.619-6.493c-4.991-10.855-6.486-22.951-7.077-34.772c-0.623-12.467-0.76-24.986-1.109-37.465
		c-0.203-7.229-0.3-14.474,0.067-21.699c0.38-7.488,1.385-14.866,2.529-22.271c0.578-3.76,1.179-7.515,1.707-11.284
		c0.468-3.296,0.628-6.738,1.355-9.986c0.486-2.167,1.161-4.316,1.805-6.474c0.31,0.225,0.723,0.301,1.156,0.076
		c0.569-0.3,2.003,0.287,2.551,0.45c1.306,0.389,2.595,0.834,3.869,1.31c2.86,1.063,5.676,2.264,8.562,3.235
		c7.833,2.638,16.155,3.036,23.631,6.8c-0.372,8.795-3.517,17.612-8.155,25.029c-4.819,7.71-11.676,14.73-20.768,16.95
		c-0.718,0.176-0.979,1.006-0.662,1.62c0.305,0.577,0.499,1.196,0.711,1.804c-3.632,0.954-7.36,1.482-10.899,2.776
		c-0.416,0.15-0.874,0.556-0.808,1.063c0.543,4.078-1.033,9.126,0.897,12.929c2.223,4.382,8.314,2.767,11.778,0.992
		c4.514-2.316,8.08-6.001,11.468-9.703c3.809-4.157,7.886-8.049,11.381-12.488c3.751-4.774,6.942-9.96,10.008-15.188
		c2.908-4.956,5.9-9.748,9.091-14.523c2.537-3.799,5.648-8.613,5.048-13.432c-0.634-5.083-4.201-8.553-8.534-10.891
		c-5.658-3.058-10.561-6.884-15.172-11.363c-4.369-4.245-7.365-9.43-11.151-14.143c12.056-11.676,23.022-24.235,27.545-40.951
		c3.027-11.191,3.366-23.039,2.06-34.518c-1.337-11.769-4.179-23.556-9.4-34.235c-2.594-5.304-6.12-9.796-9.606-14.522
		c-3.186-4.312-7.511-10.057-7.175-15.732c0.274-4.655,4.602-8.393,7.06-12.042c1.88-2.799,3.95-5.349,5.507-8.363
		c1.395-2.701,2.63-5.471,3.981-8.194c0.498-1.011-0.503-2.009-1.509-1.509c-4.793,2.356-9.904,3.86-14.77,6.018
		c-4.329,1.924-8.071,4.528-11.271,7.983c-1.094-0.852-2.219-1.553-3.376-2.131c5.852-14.347,19.611-22.152,33.453-27.563
		c11.126-4.347,22.408-8.172,34.068-10.808c1.761-0.397,3.544-0.785,5.336-1.182c0,0,0.001-0.001,0.003-0.001
		c0.033,0.015,0.063,0.034,0.099,0.047c11.361,4.158,24.961,11.766,36.815,4.963c0.656-0.376,0.782-1.566,0-1.905
		c-2.128-0.925-4.343-1.051-6.638-1.144c-2.844-0.114-5.535-0.725-8.176-1.792c-2.642-1.069-5.497-2.736-8.387-3.646
		c0.002,0,0.003,0,0.003,0h0.004c5.864-1.823,11.495-4.223,16.447-7.855c8.715-6.39,15.493-15.056,21.022-24.262
		c5.873-9.77,11.142-20.216,10.833-31.914c-0.031-1.209-1.902-1.548-2.167-0.296c-1.84,8.698-6.57,16.055-11.274,23.433
		c-3.275,5.132-6.669,10.277-10.856,14.726c-2.366,2.511-4.961,4.633-7.731,6.522c0.98-2.568,1.602-5.341,2.114-7.837
		c0.751-3.68,1.752-8.292,0.128-11.875c-0.234-0.508-1.06-0.724-1.509-0.393c-1.695,1.227-2.595,3.438-3.399,5.295
		c-1.261,2.93-2.343,5.935-3.406,8.94c-1.13,3.2-2.207,6.426-3.482,9.568c-0.317,0.785-0.64,1.575-1.015,2.339
		c-4.607,2.303-9.359,4.36-14.253,5.962c-6.438,2.11-12.978,2.7-19.558,4.156c-2.039,0.451-4.06,1.025-6.064,1.677
		c2.803-3.905,6.391-7.355,7.352-12.232c0.128-0.644-0.3-1.469-1.062-1.399c-4.524,0.419-8.376,4.727-11.218,7.881
		c-3.071,3.416-5.913,7.065-8.503,10.865c-0.019,0.009-0.036,0.013-0.054,0.022c-6.169,2.467-12.285,5.093-18.261,8.01
		c-6.822,3.335-14.527,6.698-20.59,11.689c0.172-0.402,0.344-0.799,0.52-1.196c2.445-5.476,5.64-10.639,9.969-14.831
		c3.879-3.761,8.19-7.004,12.682-9.986c8.716-5.781,18.04-10.771,26.067-17.528c8.194-6.888,14.103-15.701,18.159-25.581
		c4.161-10.141,5.874-21.751-0.472-31.388c-0.45-0.68-1.271-0.605-1.738-0.19h-0.004c-0.672,0.158-1.201,0.847-0.702,1.57
		c2.32,3.349,1.796,8.301,1.126,12.092c-0.644,3.657-1.761,7.147-3.129,10.599c-2.776,7.026-6.315,15.397-12.105,20.675
		c0.023-4.073,0.133-9.02-4.536-10.044c-0.733-0.159-1.347,0.327-1.395,1.064c-0.392,5.86-0.092,11.764-4.571,16.239
		c-5.074,5.074-11.086,9.541-16.976,13.698c-0.07-3.487,0.326-6.96,0.534-10.45c0.198-3.336,0.084-6.659-0.058-9.996
		c-0.22-5.119-0.316-11.765-4.192-15.648c-0.715-0.715-1.822-0.155-1.885,0.781c-0.419,6.597,1.796,13.036,1.394,19.624
		c-0.392,6.394-3.618,13.481-7.85,18.278c-3.703,4.201-8.575,7.488-11.57,12.289c-2.162,3.46-3.226,7.379-4.334,11.275
		c-0.428-3.244-1.275-6.293-4.735-7.701c-0.534-0.215-1.24,0.234-1.355,0.773c-0.552,2.586,0.057,5.035,0.604,7.568
		c0.688,3.196,0.75,6.567,0.023,9.765c-1.054,4.652-3.054,9.488-5.702,13.623c-2.414-7.18-6.385-15.692-13.813-17.938
		c-0.683-0.208-1.403,0.358-1.398,1.063c0.053,5.301,1.289,10.9,0.331,16.169c-0.723,3.958-1.752,6.888-4.224,10.039
		c-3.269,4.173-5.375,8.843-6.085,14.108c-0.785,5.828,0.018,11.905-1.464,17.637c-1.06,4.082-3.067,7.842-4.709,11.708
		c-1.135,2.665-2.529,5.921-1.862,8.887c1.518,6.757,12.029,6.231,16.499,3.129c2.974-2.061,5.458-4.695,8.04-7.207
		c1.765-1.716,4.567-5.044,7.329-4.889c3.747,0.212,4.96,6.898,4.762,9.668c-0.371,5.168-3.411,9.77-6.743,13.566
		c-3.278,3.729-6.981,7.016-10.701,10.291c-4.1,3.609-7.953,7.718-12.591,10.652c-4.809,3.045-9.942,3.853-15.435,4.805
		c-5.707,0.993-11.435,1.968-17.202,2.485c-5.847,0.52-11.631,0.141-17.487-0.035c-6.531-0.199-13.076-0.326-19.603-0.745
		c-6.716-0.433-13.419-1.139-20.03-2.437c-6.125-1.204-11.865-3.816-17.991-4.969c-7.793-1.469-16.839-1.769-22.903,4.091
		c-6.5,6.284-11.433,13.957-17.338,20.757c-6.222,7.166-13.971,13.932-24.103,12.86c-1.045-0.11-1.345,1.236-0.78,1.88
		c3.994,4.589,9.103,9.505,15.227,10.93c5.433,1.262,10.141-0.61,13.924-4.183c-0.782,11.602-5.075,22.771-5.102,34.473
		c-0.008,3.336,0.296,6.813-0.362,10.11c-0.627,3.155-2.052,5.913-3.676,8.662c-3.049,5.172-6.567,10.674-11.177,14.606
		c-3.619,3.085-8.614,5.79-10.984,10.062c-2.22,3.994-1.43,9.214-1.104,13.565c1.002,13.449-1.765,26.944-4.134,40.117
		c-2.264,12.594-2.784,26.799-11.098,37.222C479.317,477.992,479.214,478.641,479.688,479.091z"/>
	<g>
		<path fill="#B8453D" d="M1017.273,511.45c-3.7,0-7.4-1.415-10.217-4.243l-226.17-226.909c-5.626-5.643-5.61-14.779,0.033-20.402
			c5.64-5.626,14.779-5.61,20.402,0.033l226.17,226.909c5.626,5.643,5.61,14.779-0.033,20.402
			C1024.643,510.045,1020.957,511.45,1017.273,511.45z"/>
	</g>
	<g>
		<path fill="#B8453D" d="M251.766,482.006c-3.697,0-7.398-1.415-10.215-4.241c-5.626-5.64-5.615-14.776,0.027-20.402
			L558.32,141.442c24.776-24.776,61.892-32.543,94.557-19.78c7.419,2.901,11.084,11.269,8.183,18.691s-11.266,11.076-18.691,8.183
			c-21.986-8.596-46.972-3.363-63.66,13.323L261.954,477.793C259.139,480.602,255.453,482.006,251.766,482.006z"/>
	</g>
	<g>
		<path fill="#B8453D" d="M620.707,1150c-22.597,0-45.195-8.601-62.4-25.806L240.715,806.602c-5.634-5.634-5.634-14.768,0-20.402
			c5.634-5.634,14.768-5.634,20.402,0l317.592,317.592c23.157,23.16,60.838,23.154,83.995,0l317.195-317.195
			c5.634-5.634,14.768-5.634,20.402,0c5.634,5.634,5.634,14.768,0,20.402l-317.195,317.195
			C665.904,1141.399,643.307,1150,620.707,1150z"/>
	</g>
</g>
</svg>
