<?xml version="1.0" encoding="utf-8"?>
<!-- Designed by Vexels.com - 2019 All Rights Reserved - https://vexels.com/terms-and-conditions/  -->
<svg version="1.1" id="Layer_1" xmlns="http://www.w3.org/2000/svg" xmlns:xlink="http://www.w3.org/1999/xlink" x="0px" y="0px"
	 viewBox="0 0 1200 1200" enable-background="new 0 0 1200 1200" xml:space="preserve">
<g>
	<g>
		<path fill="#468489" d="M264.264,289.26l49.867,54.24l-10.591,9.737l-68.846-74.888l14.763-13.571l53.301,33.708l-41.211-44.821
			l10.486-9.64l68.844,74.885l-12.089,11.113L264.264,289.26z"/>
		<path fill="#468489" d="M321.992,236.714c-8.599-13.818-6.232-26.239,7.089-34.531c13.324-8.287,25.515-4.924,34.114,8.894
			l27.939,44.906c8.596,13.815,6.229,26.239-7.092,34.528c-13.324,8.289-25.515,4.927-34.111-8.894L321.992,236.714z
			 M364.038,274.041c3.837,6.167,8.008,6.822,12.328,4.135c4.316-2.685,5.576-6.717,1.737-12.887l-29.017-46.632
			c-3.837-6.167-8.008-6.822-12.328-4.135c-4.316,2.682-5.571,6.717-1.734,12.884L364.038,274.041z"/>
		<path fill="#468489" d="M459.966,252.181c-1.762-2.117-2.886-3.394-5.9-11.11l-5.82-14.887
			c-3.442-8.797-7.691-10.883-14.459-8.235l-5.142,2.009l15.083,38.578l-14.89,5.82l-37.045-94.745l22.467-8.786
			c15.429-6.03,24.871-1.453,30.584,13.165l2.912,7.444c3.811,9.745,3.184,17.322-2.231,23.032
			c8.661,0.201,13.9,6.422,17.765,16.304l5.713,14.615c1.802,4.603,3.261,7.932,6.127,10.872L459.966,252.181z M411.972,177.323
			l11.38,29.102l5.818-2.279c5.551-2.171,7.986-5.928,5.02-13.508l-3.655-9.339c-2.642-6.765-6.107-8.846-11.388-6.78
			L411.972,177.323z"/>
		<path fill="#468489" d="M476.261,140.55l48.471-9.549l2.809,14.26l-16.397,3.229l16.857,85.533l-15.682,3.09l-16.854-85.536
			l-16.391,3.232L476.261,140.55z"/>
		<path fill="#468489" d="M584.678,227.999l-15.977,0.224l-1.425-101.686l15.977-0.224l0.61,43.581l18.159-0.253l-0.607-43.581
			l16.267-0.227l1.425,101.683l-16.272,0.227l-0.607-43.581l-18.159,0.258L584.678,227.999z"/>
		<path fill="#468489" d="M755.512,175.995l-3.55,12.733c-4.373,15.676-14.311,22.104-29.704,17.805l-7.279-2.026l-10.267,36.804
			l-15.393-4.299l27.331-97.952l22.669,6.32C754.712,149.68,759.888,160.322,755.512,175.995z M728.141,157.348l-9.254,33.166
			l7.273,2.029c4.901,1.368,8.182-0.131,10.134-7.129l4.104-14.692c1.952-6.995-0.085-9.978-4.983-11.346L728.141,157.348z"/>
		<path fill="#468489" d="M791.521,188.99c7.129-14.626,18.911-19.232,33.019-12.353c14.104,6.873,17.737,18.991,10.602,33.617
			l-23.168,47.546c-7.134,14.626-18.914,19.232-33.018,12.353c-14.107-6.873-17.739-18.988-10.608-33.617L791.521,188.99z
			 M782.27,244.453c-3.184,6.53-1.521,10.412,3.048,12.643c4.577,2.225,8.655,1.144,11.84-5.386l24.065-49.37
			c3.184-6.53,1.521-10.415-3.051-12.646c-4.572-2.225-8.656-1.146-11.84,5.389L782.27,244.453z"/>
		<path fill="#468489" d="M884.575,212.073l12.949,9.371l-51.107,70.634l21.31,15.418l-8.519,11.771l-34.256-24.786L884.575,212.073
			z"/>
		<path fill="#468489" d="M930.997,305.722l15.376,15.648l-10.361,10.185l-15.376-15.648l-21.239,20.881l19.349,19.686
			l-10.358,10.185l-30.555-31.083l72.521-71.293l30.555,31.08l-10.361,10.185l-19.349-19.686L930.997,305.722z"/>
	</g>
	<g>
		<path fill="#468489" d="M600,1150c-303.271,0-550-246.729-550-550S296.729,50,600,50s550,246.729,550,550S903.271,1150,600,1150z
			 M600,73.248c-290.452,0-526.752,236.3-526.752,526.752s236.3,526.752,526.752,526.752s526.752-236.3,526.752-526.752
			S890.452,73.248,600,73.248z"/>
	</g>
	<g>
		<path fill="#468489" d="M178.246,512.432c-0.894,0-1.805-0.105-2.716-0.323c-6.243-1.493-10.091-7.767-8.596-14.011
			c12.487-52.151,34.372-101.51,65.047-146.706c3.604-5.31,10.838-6.692,16.145-3.09c5.312,3.604,6.697,10.832,3.09,16.145
			c-29.094,42.866-49.841,89.654-61.675,139.066C188.263,508.845,183.501,512.432,178.246,512.432z"/>
	</g>
	<g>
		<path fill="#468489" d="M375.999,982.782c-2.049,0-4.123-0.542-6.005-1.68C270.91,921.178,199.907,826.85,170.07,715.49
			c-1.663-6.201,2.018-12.575,8.218-14.235c6.192-1.677,12.575,2.018,14.235,8.218c28.279,105.532,95.579,194.935,189.504,251.735
			c5.491,3.323,7.254,10.469,3.93,15.963C383.772,980.784,379.935,982.782,375.999,982.782z"/>
	</g>
	<g>
		<path fill="#468489" d="M860.453,975.753c-3.882,0-7.679-1.947-9.881-5.486c-3.391-5.452-1.723-12.62,3.729-16.011
			c77.868-48.445,136.785-133.533,165.898-239.583c1.7-6.192,8.096-9.825,14.286-8.133c6.192,1.7,9.833,8.096,8.133,14.286
			c-30.669,111.712-93.187,201.624-176.035,253.171C864.67,975.185,862.55,975.753,860.453,975.753z"/>
	</g>
	<g>
		<path fill="#468489" d="M1021.964,512.16c-5.273,0-10.046-3.613-11.306-8.97c-10.506-44.742-28.214-87.25-52.631-126.342
			c-3.4-5.446-1.745-12.617,3.701-16.017c5.449-3.4,12.617-1.745,16.017,3.701c25.768,41.254,44.458,86.118,55.548,133.345
			c1.467,6.249-2.409,12.504-8.661,13.974C1023.741,512.058,1022.844,512.16,1021.964,512.16z"/>
	</g>
	<g>
		<path fill="#468489" d="M600,929.981c-180.349,0-327.075-146.726-327.075-327.075S419.651,275.831,600,275.831
			s327.075,146.726,327.075,327.075S780.349,929.981,600,929.981z M600,299.079c-167.53,0-303.827,136.297-303.827,303.827
			S432.47,906.733,600,906.733s303.827-136.297,303.827-303.827S767.53,299.079,600,299.079z"/>
	</g>
	<g>
		<path fill="#468489" d="M448.594,951.75c-4.677-1.995-8.701-0.712-11.553,5.971l-4.277,10.023l-13.9-5.931l3.879-9.087
			c6.385-14.97,17.518-20.328,31.954-14.169c14.433,6.158,18.267,17.904,11.879,32.874c-12.543,29.4-46.487,27.871-53.045,43.24
			c-0.287,0.67-0.57,1.337-0.724,2.063l27.8,11.859l-5.701,13.366l-42.5-18.134l4.904-11.493
			c11.746-27.533,42.82-19.644,54.339-46.64C455.244,957.272,453.271,953.745,448.594,951.75z"/>
		<path fill="#468489" d="M498.961,1026.474l-1.964,9.237c-1.513,7.106,1.07,10.327,6.042,11.385
			c4.975,1.059,8.647-0.834,10.157-7.94l4.657-21.886c1.513-7.103-1.039-10.469-6.013-11.527c-4.972-1.059-8.675,0.976-10.185,8.082
			l-0.636,2.983l-14.78-3.144l15.12-57.095l41.211,8.772l-3.022,14.212l-27.144-5.778l-6.331,23.461
			c3.842-4.084,8.934-5.676,15.185-4.345c11.513,2.449,15.617,11.791,12.501,26.429l-4.716,22.169
			c-3.388,15.917-13.281,23.319-28.631,20.052c-15.347-3.266-21.372-14.053-17.984-29.971l1.754-8.244L498.961,1026.474z"/>
		<path fill="#468489" d="M610.091,969.708l25.183-2.253c15.92-1.425,24.528,6.703,25.978,22.913l4.583,51.235
			c1.45,16.21-5.576,25.739-21.497,27.164l-25.183,2.253L610.091,969.708z M627.309,982.756l6.473,72.365l8.973-0.803
			c5.066-0.454,7.872-3.332,7.222-10.568l-4.711-52.682c-0.647-7.237-3.922-9.569-8.985-9.115L627.309,982.756z"/>
		<path fill="#468489" d="M710.342,997.235l21.091-6.047l4.001,13.968l-21.091,6.047l8.21,28.634l26.537-7.608l4.004,13.968
			l-41.901,12.013l-28.03-97.776l41.904-12.01l4.004,13.968l-26.54,7.605L710.342,997.235z"/>
		<path fill="#468489" d="M817.823,975.667l6.07,12.072c7.31,14.536,4.22,26.497-9.799,33.546
			c-14.016,7.049-25.461,2.398-32.772-12.138l-23.759-47.245c-7.31-14.536-4.22-26.497,9.796-33.546
			c14.019-7.049,25.464-2.398,32.774,12.138l4.438,8.826l-13.5,6.788l-4.895-9.734c-3.264-6.49-7.359-7.52-11.902-5.233
			c-4.541,2.282-6.155,6.184-2.892,12.674l24.672,49.061c3.264,6.487,7.293,7.39,11.834,5.105c4.543-2.284,6.223-6.059,2.96-12.546
			l-6.527-12.98L817.823,975.667z"/>
	</g>
	<path fill="#468489" d="M1087.999,636.631c-2.94-5.925-13.424-9.538-14.522-9.76c-0.059-0.013-0.105-0.026-0.15-0.039
		c0.431-0.34,1.541-0.987,4.292-1.666c4.625-1.15,7.63-3.731,7.48-6.428c-0.078-1.392-1.078-3.835-6.911-4.612
		c-8.198-1.097-18.03,3.038-20.578,4.188l-5.428-2.9c0.379-1.777,0.575-3.613,0.575-5.501c0-2.417-0.327-4.756-0.941-6.977
		l5.2-3.227c2.613,0.993,12.693,4.482,20.8,2.868c5.775-1.15,6.617-3.652,6.604-5.049c-0.02-2.691-3.188-5.076-7.878-5.932
		c-2.783-0.503-3.939-1.071-4.383-1.385c0.039-0.02,0.091-0.033,0.143-0.046c1.078-0.293,11.308-4.566,13.869-10.674
		c0.856-2.051,0.745-4.135-0.327-6.029l-0.307-0.503c-1.254-1.849-3.077-2.874-5.291-3.018c-6.617-0.418-14.979,6.853-15.724,7.689
		c-0.033,0.039-0.071,0.078-0.105,0.105c-0.078-0.542-0.078-1.823,0.706-4.547c1.32-4.58,0.594-8.473-1.816-9.694
		c-1.241-0.627-3.861-0.987-7.454,3.678c-5.05,6.545-6.402,17.128-6.677,19.911l-5.16,3.208c-2.907-2.626-6.402-4.612-10.263-5.742
		v-6.049c2.221-1.699,10.497-8.421,13.404-16.168c2.064-5.514,0.379-7.552-0.81-8.27c-2.306-1.405-5.997,0.033-9.191,3.567
		c-1.901,2.103-2.992,2.776-3.495,2.998c0.007-0.052,0.02-0.098,0.033-0.15c0.327-1.072,2.09-12.014-1.751-17.409
		c-1.293-1.809-3.122-2.815-5.297-2.907h-0.588c-0.01,0.001-0.018,0.003-0.027,0.003v0c-2.221,0.099-4.041,1.103-5.329,2.905
		c-3.841,5.389-2.077,16.338-1.757,17.409c0.019,0.052,0.033,0.098,0.039,0.15c-0.503-0.222-1.594-0.895-3.495-2.998
		c-3.195-3.534-6.892-4.971-9.192-3.567c-1.189,0.718-2.881,2.757-0.81,8.27c2.901,7.747,11.184,14.469,13.405,16.168v6.049
		c-4.416,1.294-8.349,3.71-11.484,6.918l-5.363-2.874c-0.451-2.764-2.476-13.235-7.931-19.448c-3.886-4.422-6.473-3.9-7.676-3.188
		c-2.325,1.372-2.802,5.305-1.195,9.792c0.96,2.658,1.045,3.946,0.999,4.488c-0.039-0.026-0.078-0.059-0.117-0.098
		c-0.79-0.79-9.623-7.512-16.181-6.663c-2.201,0.281-3.952,1.424-5.056,3.299l-0.281,0.516c-0.973,2.012-0.947,4.103,0.04,6.095
		c2.946,5.932,13.424,9.538,14.521,9.76c0.052,0.006,0.105,0.02,0.151,0.039c-0.431,0.34-1.542,0.98-4.292,1.666
		c-4.625,1.15-7.63,3.73-7.486,6.421c0.078,1.392,1.078,3.842,6.918,4.619c0.941,0.124,1.907,0.183,2.881,0.183
		c7.48,0,15.443-3.351,17.697-4.377l5.389,2.881v0.006c-0.353,1.725-0.535,3.508-0.535,5.331c0,2.469,0.339,4.867,0.98,7.134
		l-5.239,3.253c-2.613-0.993-12.693-4.482-20.806-2.868c-5.768,1.15-6.611,3.658-6.605,5.049c0.026,2.698,3.188,5.083,7.879,5.932
		c2.789,0.503,3.939,1.078,4.39,1.391c-0.046,0.013-0.092,0.033-0.143,0.046c-1.078,0.287-11.308,4.553-13.869,10.668
		c-0.855,2.051-0.745,4.142,0.32,6.036l0.313,0.503c1.254,1.842,3.07,2.868,5.292,3.011c6.585,0.406,14.979-6.846,15.717-7.682
		c0.04-0.046,0.072-0.078,0.111-0.111c0.078,0.542,0.078,1.823-0.706,4.547c-1.319,4.58-0.595,8.48,1.816,9.695
		c0.385,0.195,0.908,0.366,1.548,0.366c1.418,0,3.43-0.83,5.905-4.038c5.049-6.552,6.395-17.128,6.676-19.917l5.285-3.28
		c2.881,2.574,6.337,4.52,10.139,5.638v6.225c-2.221,1.705-10.504,8.427-13.405,16.168c-2.071,5.513-0.379,7.552,0.81,8.277
		c2.306,1.405,5.997-0.033,9.192-3.567c1.901-2.103,2.992-2.783,3.495-2.998c-0.006,0.045-0.02,0.098-0.039,0.15
		c-0.32,1.072-2.084,12.014,1.757,17.409c1.294,1.809,3.123,2.816,5.298,2.907h0.031h0.556c2.235-0.091,4.064-1.098,5.35-2.907
		c3.847-5.396,2.084-16.338,1.758-17.409c-0.013-0.052-0.026-0.105-0.033-0.15c0.503,0.216,1.594,0.895,3.495,2.998
		c3.194,3.534,6.885,4.965,9.191,3.567c1.189-0.725,2.875-2.763,0.81-8.277c-2.907-7.741-11.184-14.463-13.404-16.168v-6.225
		c4.357-1.275,8.244-3.645,11.36-6.794l5.488,2.927c0.45,2.763,2.469,13.235,7.93,19.447c2.528,2.881,4.508,3.664,5.912,3.664
		c0.758,0,1.346-0.228,1.764-0.477c2.326-1.365,2.802-5.298,1.189-9.785c-0.961-2.665-1.039-3.953-0.993-4.495
		c0.04,0.026,0.078,0.065,0.111,0.105c0.797,0.784,9.616,7.506,16.181,6.663c2.208-0.288,3.958-1.424,5.063-3.299l0.281-0.523
		C1089.005,640.714,1088.985,638.623,1087.999,636.631z M1026.325,620.142c-5.644,0-10.23-4.586-10.23-10.23
		c0-5.538,4.428-10.057,9.935-10.215v0c0.099-0.003,0.196-0.015,0.295-0.015c5.637,0,10.223,4.593,10.223,10.23
		C1036.548,615.556,1031.963,620.142,1026.325,620.142z"/>
	<path fill="#468489" d="M248.425,636.631c-2.94-5.925-13.424-9.538-14.522-9.76c-0.059-0.013-0.105-0.026-0.15-0.039
		c0.431-0.34,1.541-0.987,4.291-1.666c4.625-1.15,7.63-3.731,7.48-6.428c-0.078-1.392-1.077-3.835-6.911-4.612
		c-8.198-1.097-18.03,3.038-20.577,4.188l-5.428-2.9c0.379-1.777,0.575-3.613,0.575-5.501c0-2.417-0.327-4.756-0.941-6.977
		l5.2-3.227c2.613,0.993,12.693,4.482,20.8,2.868c5.775-1.15,6.617-3.652,6.604-5.049c-0.02-2.691-3.188-5.076-7.878-5.932
		c-2.783-0.503-3.939-1.071-4.383-1.385c0.039-0.02,0.091-0.033,0.143-0.046c1.078-0.293,11.308-4.566,13.869-10.674
		c0.855-2.051,0.744-4.135-0.327-6.029l-0.307-0.503c-1.254-1.849-3.077-2.874-5.291-3.018c-6.617-0.418-14.979,6.853-15.724,7.689
		c-0.033,0.039-0.071,0.078-0.105,0.105c-0.078-0.542-0.078-1.823,0.706-4.547c1.32-4.58,0.595-8.473-1.816-9.694
		c-1.241-0.627-3.861-0.987-7.454,3.678c-5.05,6.545-6.402,17.128-6.677,19.911l-5.16,3.208c-2.907-2.626-6.402-4.612-10.263-5.742
		v-6.049c2.221-1.699,10.497-8.421,13.404-16.168c2.064-5.514,0.379-7.552-0.81-8.27c-2.306-1.405-5.997,0.033-9.191,3.567
		c-1.901,2.103-2.992,2.776-3.495,2.998c0.007-0.052,0.02-0.098,0.033-0.15c0.327-1.072,2.09-12.014-1.751-17.409
		c-1.293-1.809-3.122-2.815-5.298-2.907h-0.588c-0.01,0.001-0.018,0.003-0.027,0.003v0c-2.221,0.099-4.041,1.103-5.329,2.904
		c-3.841,5.389-2.077,16.338-1.757,17.409c0.019,0.052,0.033,0.098,0.039,0.15c-0.503-0.222-1.594-0.895-3.495-2.998
		c-3.195-3.534-6.892-4.971-9.191-3.567c-1.189,0.718-2.881,2.757-0.81,8.27c2.901,7.747,11.184,14.469,13.405,16.168v6.049
		c-4.416,1.294-8.349,3.71-11.484,6.918l-5.363-2.874c-0.451-2.764-2.476-13.235-7.931-19.448c-3.886-4.422-6.473-3.9-7.676-3.188
		c-2.325,1.372-2.802,5.304-1.195,9.792c0.96,2.658,1.045,3.946,0.999,4.488c-0.039-0.026-0.078-0.059-0.117-0.098
		c-0.79-0.79-9.623-7.512-16.181-6.663c-2.201,0.281-3.952,1.424-5.056,3.299l-0.281,0.516c-0.973,2.012-0.947,4.102,0.04,6.095
		c2.946,5.932,13.424,9.538,14.521,9.76c0.052,0.006,0.105,0.02,0.151,0.039c-0.431,0.34-1.542,0.98-4.292,1.666
		c-4.625,1.15-7.63,3.73-7.486,6.421c0.078,1.392,1.078,3.842,6.918,4.619c0.941,0.124,1.907,0.183,2.881,0.183
		c7.48,0,15.443-3.351,17.697-4.377l5.389,2.881v0.006c-0.353,1.725-0.535,3.508-0.535,5.331c0,2.469,0.339,4.867,0.98,7.134
		l-5.239,3.253c-2.613-0.993-12.693-4.482-20.806-2.868c-5.768,1.15-6.611,3.658-6.605,5.049c0.026,2.698,3.188,5.083,7.879,5.932
		c2.789,0.503,3.939,1.078,4.39,1.391c-0.046,0.013-0.092,0.033-0.144,0.046c-1.078,0.287-11.308,4.553-13.869,10.668
		c-0.855,2.051-0.744,4.142,0.32,6.036l0.313,0.503c1.254,1.842,3.07,2.867,5.292,3.011c6.585,0.406,14.979-6.846,15.717-7.682
		c0.04-0.046,0.072-0.078,0.111-0.111c0.078,0.542,0.078,1.823-0.705,4.547c-1.319,4.58-0.595,8.48,1.816,9.695
		c0.385,0.195,0.908,0.366,1.548,0.366c1.418,0,3.43-0.83,5.905-4.038c5.049-6.552,6.395-17.128,6.676-19.917l5.285-3.28
		c2.881,2.574,6.337,4.52,10.139,5.638v6.225c-2.221,1.705-10.504,8.427-13.405,16.168c-2.071,5.513-0.379,7.552,0.81,8.277
		c2.306,1.405,5.997-0.033,9.191-3.567c1.901-2.103,2.992-2.783,3.495-2.998c-0.006,0.045-0.02,0.098-0.039,0.15
		c-0.32,1.072-2.084,12.014,1.757,17.409c1.294,1.809,3.123,2.816,5.298,2.907h0.031h0.556c2.235-0.091,4.064-1.098,5.35-2.907
		c3.847-5.396,2.084-16.338,1.758-17.409c-0.013-0.052-0.026-0.105-0.033-0.15c0.503,0.216,1.594,0.895,3.495,2.998
		c3.194,3.534,6.885,4.965,9.191,3.567c1.189-0.725,2.874-2.763,0.81-8.277c-2.907-7.741-11.184-14.463-13.404-16.168v-6.225
		c4.357-1.275,8.244-3.645,11.36-6.794l5.488,2.927c0.45,2.763,2.469,13.235,7.93,19.447c2.528,2.881,4.508,3.664,5.912,3.664
		c0.758,0,1.346-0.228,1.764-0.477c2.326-1.365,2.803-5.298,1.189-9.785c-0.961-2.665-1.039-3.953-0.993-4.495
		c0.04,0.026,0.078,0.065,0.111,0.105c0.797,0.784,9.616,7.506,16.181,6.663c2.208-0.288,3.958-1.424,5.063-3.299l0.281-0.523
		C249.431,640.714,249.411,638.623,248.425,636.631z M186.751,620.142c-5.644,0-10.23-4.586-10.23-10.23
		c0-5.538,4.428-10.057,9.935-10.215v0c0.099-0.003,0.196-0.015,0.295-0.015c5.638,0,10.223,4.593,10.223,10.23
		C196.974,615.556,192.389,620.142,186.751,620.142z"/>
	<path fill="#468489" d="M428.465,763.096c92.249,6.066,305.843,3.391,369.782-0.313c54.394-3.157,37.365-50.936,20.813-54.966
		c-2.022-0.491-3.899-0.792-5.641-0.931c-4.921-0.394-7.373,5.962-3.467,8.982c0.712,0.551,1.416,1.23,2.105,2.055
		c9.725,11.671-1.801,18.363-7.184,19.403c-16.717,3.235-56.688,2.511-82.844,1.595c-2.735-0.096-4.889-2.348-4.867-5.084
		c0.061-7.393,0.134-16.341,0.196-24.097c0.021-2.631,2.061-4.799,4.685-4.991c17.808-1.305,31.342-2.436,38.038-3.017
		c36.726-3.19,43.114-55.345,50.566-91.009c5.051-24.16,10.358-35.144,13.255-39.715c0.995-1.571,2.764-2.553,4.619-2.418
		c12.142,0.888,25.034-20.136,5.826-30.3c-27.929-14.759-56.552,46.271-118.244,66.838c-61.69,20.565-86.364-68.886-110.007-144.977
		c-23.656-76.082-131.607-66.827-167.594-48.319c-32.351,16.638-19.547,51.474,2.015,55.423c0,0,0.011,0,0.034,0.011
		c0.794,0.324,17.254,7.486,6.871,40.733c-10.642,34.049-18.621,164.447,7.453,190.532c5.358,5.358,19.853,8.783,39.818,10.813
		c2.569,0.261,4.536,2.403,4.557,4.985c0.068,8.455,0.144,17.691,0.2,24.568c0.023,2.83-2.289,5.122-5.119,5.086
		c-36.425-0.469-64.169-2.612-67.912-7.853c-1.625-2.279-2.384-4.154-2.629-5.677c-0.64-3.984-5.556-5.644-8.44-2.823
		c-1.539,1.506-3.165,3.594-4.823,6.463C403.979,745.416,409.015,761.822,428.465,763.096z M523.301,744.032
		c-2.875,0.021-5.188-2.354-5.088-5.227l0.104-2.984c0.025-0.703,0.186-1.398,0.497-2.029c1.142-2.322,3.157-4.307,6.646-4.992
		c25.052-4.913,143.476-7.742,159.042-6.903c15.555,0.826,13.071,15.967,13.071,15.967h0.769l0.001,0.041
		c-0.497-0.026-0.771-0.041-0.771-0.041S601.22,743.474,523.301,744.032z"/>
</g>
</svg>
